<?xml version="1.0" encoding="utf-8"?>
<!-- Generator: Adobe Illustrator 24.3.0, SVG Export Plug-In . SVG Version: 6.00 Build 0)  -->
<svg version="1.1" id="Layer_1" xmlns="http://www.w3.org/2000/svg" xmlns:xlink="http://www.w3.org/1999/xlink" x="0px" y="0px"
	 viewBox="0 0 300 300" style="enable-background:new 0 0 300 300;" xml:space="preserve">
<style type="text/css">
	.st0{fill:#F9001B;}
	.st1{fill:#00901E;}
	.st2{fill:#0089C6;}
	.st3{fill:#9AC800;}
</style>
<g>
	<path class="st0" d="M150,0L150,0C109.87,0,73.43,15.76,46.51,41.42c-1.74,1.66-3.43,3.35-5.09,5.09C15.76,73.43,0,109.87,0,150v0
		h150V0z"/>
	<path class="st1" d="M258.58,46.51c-1.66-1.74-3.35-3.43-5.09-5.09C226.57,15.76,190.13,0,150,0h0v150h150v0
		C300,109.87,284.24,73.43,258.58,46.51z"/>
	<path class="st2" d="M0,150L0,150c0,40.13,15.76,76.57,41.42,103.49c1.66,1.74,3.35,3.43,5.09,5.09
		C73.43,284.24,109.87,300,150,300h0V150H0z"/>
	<path class="st3" d="M150,300L150,300c40.13,0,76.57-15.76,103.49-41.42c1.74-1.66,3.43-3.35,5.09-5.09
		C284.24,226.57,300,190.13,300,150v0H150V300z"/>
</g>
</svg>
