<?xml version="1.0" encoding="utf-8"?>
<!-- Generator: Adobe Illustrator 24.3.0, SVG Export Plug-In . SVG Version: 6.00 Build 0)  -->
<svg version="1.1" id="Layer_1" xmlns="http://www.w3.org/2000/svg" xmlns:xlink="http://www.w3.org/1999/xlink" x="0px" y="0px"
	 viewBox="0 0 53.25 30.19" style="enable-background:new 0 0 53.25 30.19;" xml:space="preserve">
<style type="text/css">
	.st0{clip-path:url(#SVGID_2_);fill:none;stroke:#000000;stroke-width:3;stroke-miterlimit:10;}
	.st1{clip-path:url(#SVGID_2_);}
</style>
<g>
	<defs>
		<rect id="SVGID_1_" y="0" width="53.25" height="30.18"/>
	</defs>
	<clipPath id="SVGID_2_">
		<use xlink:href="#SVGID_1_"  style="overflow:visible;"/>
	</clipPath>
	<line class="st0" x1="0" y1="15.09" x2="49.64" y2="15.09"/>
	<path class="st1" d="M29.14,29.49c-0.45-0.7-0.24-1.63,0.46-2.07l19.36-12.33L29.6,2.76c-0.7-0.44-0.91-1.37-0.46-2.07
		c0.44-0.7,1.38-0.9,2.07-0.46l21.34,13.59c0.43,0.27,0.69,0.75,0.69,1.27c0,0.51-0.26,0.99-0.69,1.26L31.21,29.95
		c-0.25,0.16-0.53,0.23-0.81,0.23C29.91,30.18,29.42,29.94,29.14,29.49"/>
</g>
</svg>
