<?xml version="1.0" encoding="UTF-8"?><svg id="Layer_1" xmlns="http://www.w3.org/2000/svg" viewBox="0 0 80.55 36"><defs><style>.cls-1{fill:#f8ab00;}.cls-2{fill:#008ac7;}.cls-3{fill:#00983e;}.cls-4{fill:#ea4f6a;}.cls-5{fill:#ece2d3;}.cls-6{fill:#e52028;}.cls-7{fill:#fff;}.cls-8{fill:#ee7615;}.cls-9{fill:#cf1821;}.cls-10{fill:#231f20;}.cls-11{fill:#1d1d1b;}.cls-12{fill:#9ac31c;}.cls-13{fill:#595a5c;}</style></defs><path class="cls-5" d="M20.84,1.49V34.51s-.04,0-.07,0c-.82,0-1.49,.67-1.49,1.49H0v-2.25c.57-.18,.98-.7,.98-1.33s-.41-1.15-.98-1.33v-1.46c.57-.18,.98-.7,.98-1.33s-.41-1.15-.98-1.33v-1.46c.57-.18,.98-.7,.98-1.33s-.41-1.15-.98-1.33v-1.46c.57-.18,.98-.7,.98-1.33s-.41-1.15-.98-1.33v-1.46c.57-.18,.98-.7,.98-1.33s-.41-1.15-.98-1.33v-1.46c.57-.18,.98-.7,.98-1.33s-.41-1.15-.98-1.33v-1.46c.57-.18,.98-.7,.98-1.33s-.41-1.15-.98-1.33v-1.47c.57-.18,.98-.7,.98-1.33s-.41-1.15-.98-1.33V0H19.28c0,.82,.67,1.49,1.49,1.49,.02,0,.04,0,.07,0Z"/><path class="cls-9" d="M79.57,3.58c0,.62,.41,1.15,.98,1.33v1.47c-.57,.18-.98,.7-.98,1.33s.41,1.15,.98,1.33v1.46c-.57,.18-.98,.7-.98,1.33s.41,1.15,.98,1.33v1.46c-.57,.18-.98,.7-.98,1.33s.41,1.15,.98,1.33v1.46c-.57,.18-.98,.7-.98,1.33s.41,1.15,.98,1.33v1.46c-.57,.18-.98,.7-.98,1.33s.41,1.15,.98,1.33v1.46c-.57,.18-.98,.7-.98,1.33s.41,1.15,.98,1.33v1.46c-.57,.18-.98,.7-.98,1.33s.41,1.15,.98,1.33v2.25H22.29c0-.8-.63-1.45-1.42-1.49V1.49c.79-.03,1.42-.69,1.42-1.49h58.26V2.25c-.57,.18-.98,.7-.98,1.33Z"/><path class="cls-13" d="M20.73,34.44h0c-.07,0-.12-.06-.12-.12v-.9c0-.07,.06-.12,.13-.12h0c.07,0,.12,.06,.12,.12v.9c0,.07-.06,.12-.13,.12Zm0-2.12h0c-.07,0-.12-.06-.12-.12v-.9c0-.07,.06-.12,.13-.12h0c.07,0,.12,.06,.12,.12v.9c0,.07-.06,.12-.13,.12Zm0-2.12h0c-.07,0-.12-.06-.12-.12v-.9c0-.07,.06-.12,.13-.12h0c.07,0,.12,.06,.12,.12v.9c0,.07-.06,.12-.13,.12Zm0-2.12h0c-.07,0-.12-.06-.12-.12v-.9c0-.07,.06-.12,.13-.12h0c.07,0,.12,.06,.12,.12v.9c0,.07-.06,.12-.13,.12Zm0-2.12h0c-.07,0-.12-.06-.12-.12v-.9c0-.07,.06-.12,.13-.12h0c.07,0,.12,.06,.12,.12v.9c0,.07-.06,.12-.13,.12Zm0-2.12h0c-.07,0-.12-.06-.12-.12v-.9c0-.07,.06-.12,.13-.12h0c.07,0,.12,.06,.12,.12v.9c0,.07-.06,.12-.13,.12Zm0-2.12h0c-.07,0-.12-.06-.12-.12v-.9c0-.07,.06-.12,.13-.12h0c.07,0,.12,.06,.12,.12v.9c0,.07-.06,.12-.13,.12Zm0-2.12h0c-.07,0-.12-.06-.12-.12v-.9c0-.07,.06-.12,.13-.12h0c.07,0,.12,.06,.12,.12v.9c0,.07-.06,.12-.13,.12Zm0-2.12h0c-.07,0-.12-.06-.12-.12v-.9c0-.07,.06-.12,.13-.12h0c.07,0,.12,.06,.12,.12v.9c0,.07-.06,.12-.13,.12Zm0-2.12h0c-.07,0-.12-.06-.12-.12v-.9c0-.07,.06-.12,.13-.12h0c.07,0,.12,.06,.12,.12v.9c0,.07-.06,.12-.13,.12Zm0-2.12h0c-.07,0-.12-.06-.12-.12v-.9c0-.07,.06-.12,.13-.12,.07,0,.12,.06,.12,.12v.9c0,.07-.06,.12-.13,.12Zm0-2.12h0c-.07,0-.12-.06-.12-.12v-.9c0-.07,.06-.12,.13-.12h0c.07,0,.12,.06,.12,.12v.9c0,.07-.06,.12-.13,.12Zm0-2.12h0c-.07,0-.12-.06-.12-.12v-.9c0-.07,.06-.12,.13-.12h0c.07,0,.12,.06,.12,.12v.9c0,.07-.06,.12-.13,.12Zm0-2.12h0c-.07,0-.12-.06-.12-.12v-.9c0-.07,.06-.12,.13-.12h0c.07,0,.12,.06,.12,.12v.9c0,.07-.06,.12-.13,.12Zm0-2.12h0c-.07,0-.12-.06-.12-.12v-.9c0-.07,.06-.12,.13-.12,.07,0,.12,.06,.12,.12v.9c0,.07-.06,.12-.13,.12Zm0-2.12h0c-.07,0-.12-.06-.12-.12v-.9c0-.07,.06-.12,.13-.12h0c.07,0,.12,.06,.12,.12v.9c0,.07-.06,.12-.13,.12Z"/><g><rect class="cls-10" x="12.42" y="3.07" width=".46" height="9.38" transform="translate(20.41 -4.9) rotate(90)"/><rect class="cls-10" x="12.54" y="3.97" width=".23" height="9.38" transform="translate(21.32 -4) rotate(90)"/><rect class="cls-10" x="12.26" y="5.04" width=".79" height="9.38" transform="translate(22.39 -2.93) rotate(90)"/><rect class="cls-10" x="12.4" y="5.99" width=".51" height="9.38" transform="translate(23.34 -1.97) rotate(90)"/><rect class="cls-10" x="12.42" y="23.29" width=".46" height="9.38" transform="translate(40.63 15.32) rotate(90)"/><rect class="cls-10" x="12.54" y="24.2" width=".23" height="9.38" transform="translate(41.54 16.23) rotate(90)"/><rect class="cls-10" x="12.26" y="25.26" width=".79" height="9.38" transform="translate(42.61 17.3) rotate(90)"/><rect class="cls-10" x="12.4" y="26.22" width=".51" height="9.38" transform="translate(43.56 18.25) rotate(90)"/><rect class="cls-10" x="12.33" y="1.5" width=".66" height="9.38" transform="translate(18.85 -6.47) rotate(90)"/><rect class="cls-10" x="12.59" y="2.25" width=".14" height="9.38" transform="translate(19.6 -5.72) rotate(90)"/><rect class="cls-10" x="12.42" y="19.34" width=".46" height="9.38" transform="translate(36.68 11.37) rotate(90)"/><rect class="cls-10" x="12.54" y="20.24" width=".23" height="9.38" transform="translate(37.59 12.28) rotate(90)"/><rect class="cls-10" x="12.46" y="21.12" width=".4" height="9.38" transform="translate(38.46 13.15) rotate(90)"/><rect class="cls-10" x="12.56" y="22.03" width=".2" height="9.38" transform="translate(39.37 14.06) rotate(90)"/><rect class="cls-10" x="12.33" y="17.77" width=".66" height="9.38" transform="translate(35.12 9.81) rotate(90)"/><rect class="cls-10" x="12.59" y="16.87" width=".14" height="9.38" transform="translate(34.22 8.9) rotate(90)"/><rect class="cls-10" x="12.59" y="18.52" width=".14" height="9.38" transform="translate(35.87 10.55) rotate(90)"/><rect class="cls-10" x="12.42" y="14.21" width=".46" height="9.38" transform="translate(31.55 6.24) rotate(90)"/><rect class="cls-10" x="12.54" y="15.11" width=".23" height="9.38" transform="translate(32.46 7.15) rotate(90)"/><rect class="cls-10" x="12.59" y="13.39" width=".14" height="9.38" transform="translate(30.74 5.42) rotate(90)"/><rect class="cls-10" x="12.47" y="6.83" width=".38" height="9.38" transform="translate(24.17 -1.14) rotate(90)"/><rect class="cls-10" x="12.56" y="7.57" width=".19" height="9.38" transform="translate(24.91 -.4) rotate(90)"/><rect class="cls-10" x="12.47" y="8.73" width=".37" height="9.38" transform="translate(26.08 .76) rotate(90)"/><rect class="cls-10" x="12.24" y="9.56" width=".83" height="9.38" transform="translate(26.91 1.59) rotate(90)"/><rect class="cls-10" x="12.06" y="11.02" width="1.2" height="9.38" transform="translate(28.37 3.05) rotate(90)"/><rect class="cls-10" x="12.25" y="16.07" width=".81" height="9.38" transform="translate(33.41 8.1) rotate(90)"/><rect class="cls-10" x="12.51" y="12.27" width=".3" height="9.38" transform="translate(29.61 4.3) rotate(90)"/><rect class="cls-10" x="12.58" y="12.76" width=".15" height="9.38" transform="translate(30.11 4.79) rotate(90)"/><rect class="cls-10" x="12.57" y="8.08" width=".18" height="9.38" transform="translate(25.43 .12) rotate(90)"/></g><g><rect class="cls-4" x="12.13" y="25.94" width="1.06" height="9.38" transform="translate(-17.97 43.29) rotate(-90)"/><rect class="cls-1" x="10.59" y="23.34" width="4.14" height="9.38" transform="translate(-15.37 40.68) rotate(-90)"/><rect class="cls-2" x="11.05" y="19.66" width="3.21" height="9.38" transform="translate(-11.69 37.01) rotate(-90)"/><rect class="cls-3" x="10.75" y="16.15" width="3.8" height="9.38" transform="translate(-8.19 33.5) rotate(-90)"/><rect class="cls-6" x="11.06" y="12.66" width="3.19" height="9.38" transform="translate(-4.69 30) rotate(-90)"/><rect class="cls-8" x="10.21" y="8.62" width="4.89" height="9.38" transform="translate(-.65 25.97) rotate(-90)"/><rect class="cls-12" x="10.16" y="3.68" width="5" height="9.38" transform="translate(4.29 21.02) rotate(-90)"/></g><g><path class="cls-11" d="M6.72,29.96v.38h-2.24v-.38h2.24Z"/><path class="cls-11" d="M4.48,27.5h2.24v.19s0,.05-.01,.07c0,.02-.03,.04-.05,.06l-1.58,1.27s.06,0,.09,0c.03,0,.06,0,.08,0h1.47v.33h-2.24v-.2s0-.03,0-.04c0-.01,0-.02,0-.03s.01-.02,.02-.03,.02-.02,.03-.03l1.58-1.27s-.06,0-.09,0c-.03,0-.06,0-.09,0h-1.46v-.33Z"/><path class="cls-11" d="M4.77,26.57h.72v-.9h.29v.9h.93v.38h-2.24v-1.44h.29v1.06Z"/><path class="cls-11" d="M5.6,22.99c.17,0,.32,.03,.46,.08s.26,.13,.36,.23c.1,.1,.18,.22,.24,.36,.06,.14,.09,.3,.09,.47s-.03,.33-.09,.47c-.06,.14-.14,.26-.24,.36-.1,.1-.22,.18-.36,.24s-.29,.08-.46,.08-.32-.03-.46-.08c-.14-.06-.26-.13-.36-.24-.1-.1-.18-.22-.24-.36-.06-.14-.09-.3-.09-.47s.03-.33,.09-.47c.06-.14,.14-.26,.24-.36,.1-.1,.22-.18,.36-.23,.14-.06,.29-.08,.46-.08Zm0,.38c-.13,0-.24,.02-.35,.05-.1,.04-.19,.09-.26,.15-.07,.07-.13,.15-.16,.24-.04,.09-.06,.2-.06,.32s.02,.22,.06,.32c.04,.09,.09,.18,.16,.24,.07,.07,.16,.12,.26,.16s.22,.05,.35,.05,.25-.02,.35-.05,.19-.09,.26-.16,.13-.15,.16-.24,.06-.2,.06-.32-.02-.23-.06-.32c-.04-.1-.09-.18-.16-.24-.07-.07-.16-.12-.26-.15-.1-.04-.22-.05-.35-.05Z"/><path class="cls-11" d="M6.22,20.98s0-.04,.02-.05l.16-.15c.11,.09,.19,.21,.25,.35s.09,.3,.09,.49c0,.17-.03,.32-.08,.46-.06,.14-.14,.25-.24,.35s-.22,.17-.36,.22c-.14,.05-.29,.08-.46,.08s-.32-.03-.46-.08c-.14-.05-.26-.13-.36-.23-.1-.1-.18-.22-.24-.36-.06-.14-.08-.29-.08-.46s.03-.31,.08-.44c.05-.13,.12-.24,.21-.33l.17,.12s.02,.02,.03,.03,.01,.03,.01,.05,0,.05-.03,.07-.04,.06-.06,.1c-.02,.04-.04,.1-.06,.16-.02,.06-.03,.14-.03,.24,0,.11,.02,.21,.06,.3s.09,.17,.16,.24,.16,.12,.26,.15c.1,.04,.22,.06,.35,.06s.25-.02,.35-.06c.1-.04,.19-.09,.26-.16,.07-.07,.13-.15,.16-.24s.06-.19,.06-.29c0-.06,0-.12,0-.17s-.02-.1-.03-.14-.03-.08-.06-.12c-.02-.04-.05-.08-.08-.11-.02-.02-.03-.04-.03-.06Z"/><path class="cls-11" d="M5.6,18.33c.17,0,.32,.03,.46,.08,.14,.06,.26,.13,.36,.23s.18,.22,.24,.36c.06,.14,.09,.3,.09,.47s-.03,.33-.09,.47c-.06,.14-.14,.26-.24,.36-.1,.1-.22,.18-.36,.24s-.29,.08-.46,.08-.32-.03-.46-.08c-.14-.06-.26-.13-.36-.24-.1-.1-.18-.22-.24-.36-.06-.14-.09-.3-.09-.47s.03-.33,.09-.47c.06-.14,.14-.26,.24-.36,.1-.1,.22-.18,.36-.23,.14-.06,.29-.08,.46-.08Zm0,.38c-.13,0-.24,.02-.35,.05-.1,.04-.19,.09-.26,.15-.07,.07-.13,.15-.16,.24-.04,.09-.06,.2-.06,.32s.02,.22,.06,.32c.04,.09,.09,.18,.16,.24,.07,.07,.16,.12,.26,.16s.22,.05,.35,.05,.25-.02,.35-.05,.19-.09,.26-.16,.13-.15,.16-.24,.06-.2,.06-.32-.02-.23-.06-.32c-.04-.1-.09-.18-.16-.24-.07-.07-.16-.12-.26-.15-.1-.04-.22-.05-.35-.05Z"/><path class="cls-11" d="M4.48,15.47h2.24v.33h-1.53s-.05,0-.08,0c-.03,0-.06,0-.09,0l1.33,.74c.06,.03,.08,.07,.08,.13v.05c0,.06-.03,.1-.08,.13l-1.33,.75s.06,0,.09,0c.03,0,.06,0,.08,0h1.53v.33h-2.24v-.28s0-.06,0-.08c0-.02,.02-.03,.05-.05l1.3-.74s.06-.03,.09-.05c.03-.01,.06-.03,.1-.04-.03-.01-.07-.03-.1-.04-.03-.01-.06-.03-.09-.05l-1.3-.73s-.05-.03-.05-.05c0-.02,0-.04,0-.08v-.28Z"/><path class="cls-11" d="M6.4,12.82s.01-.07,.03-.09c.02-.02,.05-.03,.08-.03h.2v1.56h-.11s-.05,0-.07-.01c-.02,0-.05-.03-.07-.05l-.7-.72c-.06-.06-.12-.11-.17-.16-.05-.05-.11-.09-.16-.12-.05-.03-.11-.06-.16-.08-.06-.02-.11-.03-.17-.03s-.11,0-.16,.03-.08,.04-.11,.08c-.03,.03-.05,.07-.07,.12s-.02,.1-.02,.15,0,.1,.02,.14c.01,.04,.03,.08,.06,.12s.06,.06,.09,.09,.07,.04,.12,.05c.04,.02,.07,.04,.09,.06,.01,.02,.02,.06,0,.11l-.03,.18c-.11-.02-.2-.05-.28-.09-.08-.04-.15-.1-.2-.17-.05-.07-.09-.14-.12-.23s-.04-.18-.04-.28,.01-.2,.04-.28c.03-.09,.07-.16,.13-.22,.05-.06,.12-.11,.2-.15,.08-.04,.17-.05,.26-.05,.08,0,.16,.01,.23,.04,.07,.03,.14,.06,.2,.1,.06,.04,.13,.09,.19,.15s.12,.12,.18,.18l.55,.56s-.02-.09-.03-.14c0-.05-.01-.09-.01-.13v-.68Z"/><path class="cls-11" d="M5.6,10.77c.2,0,.37,.02,.51,.06,.14,.04,.26,.1,.36,.18,.09,.08,.16,.16,.21,.27,.05,.1,.07,.21,.07,.33s-.02,.23-.07,.33c-.05,.1-.12,.19-.21,.27s-.21,.13-.36,.18c-.14,.04-.31,.06-.51,.06s-.37-.02-.51-.06c-.14-.04-.26-.1-.36-.18s-.16-.16-.21-.27c-.05-.1-.07-.21-.07-.33s.02-.23,.07-.33c.05-.1,.12-.19,.21-.27,.09-.08,.21-.14,.36-.18,.14-.04,.31-.06,.51-.06Zm0,.36c-.17,0-.3,.01-.41,.04-.11,.03-.2,.06-.26,.11s-.11,.1-.14,.16c-.03,.06-.04,.12-.04,.18s.01,.12,.04,.18c.03,.06,.07,.11,.14,.15s.15,.08,.26,.11c.11,.03,.25,.04,.41,.04s.3-.01,.41-.04,.2-.06,.27-.11c.07-.04,.11-.1,.14-.15,.03-.06,.04-.12,.04-.18s-.01-.12-.04-.18-.08-.11-.14-.16c-.07-.04-.15-.08-.27-.11-.11-.03-.25-.04-.41-.04Z"/><path class="cls-11" d="M6.4,9.11s.01-.07,.03-.09c.02-.02,.05-.03,.08-.03h.2v1.56h-.11s-.05,0-.07-.01c-.02,0-.05-.03-.07-.05l-.7-.72c-.06-.06-.12-.11-.17-.16-.05-.05-.11-.09-.16-.12-.05-.03-.11-.06-.16-.08-.06-.02-.11-.03-.17-.03s-.11,0-.16,.03-.08,.04-.11,.08c-.03,.03-.05,.07-.07,.12s-.02,.1-.02,.15,0,.1,.02,.14c.01,.04,.03,.08,.06,.12s.06,.06,.09,.09,.07,.04,.12,.05c.04,.02,.07,.04,.09,.06,.01,.02,.02,.06,0,.11l-.03,.18c-.11-.02-.2-.05-.28-.09-.08-.04-.15-.1-.2-.17-.05-.07-.09-.14-.12-.23s-.04-.18-.04-.28,.01-.2,.04-.28c.03-.09,.07-.16,.13-.22,.05-.06,.12-.11,.2-.15,.08-.04,.17-.05,.26-.05,.08,0,.16,.01,.23,.04,.07,.03,.14,.06,.2,.1,.06,.04,.13,.09,.19,.15s.12,.12,.18,.18l.55,.56s-.02-.09-.03-.14c0-.05-.01-.09-.01-.13v-.68Z"/><path class="cls-11" d="M6.4,7.25s.01-.07,.03-.09c.02-.02,.05-.03,.08-.03h.2v1.56h-.11s-.05,0-.07-.01c-.02,0-.05-.03-.07-.05l-.7-.72c-.06-.06-.12-.11-.17-.16-.05-.05-.11-.09-.16-.12-.05-.03-.11-.06-.16-.08-.06-.02-.11-.03-.17-.03s-.11,0-.16,.03-.08,.04-.11,.08c-.03,.03-.05,.07-.07,.12s-.02,.1-.02,.15,0,.1,.02,.14c.01,.04,.03,.08,.06,.12s.06,.06,.09,.09,.07,.04,.12,.05c.04,.02,.07,.04,.09,.06,.01,.02,.02,.06,0,.11l-.03,.18c-.11-.02-.2-.05-.28-.09-.08-.04-.15-.1-.2-.17-.05-.07-.09-.14-.12-.23s-.04-.18-.04-.28,.01-.2,.04-.28c.03-.09,.07-.16,.13-.22,.05-.06,.12-.11,.2-.15,.08-.04,.17-.05,.26-.05,.08,0,.16,.01,.23,.04,.07,.03,.14,.06,.2,.1,.06,.04,.13,.09,.19,.15s.12,.12,.18,.18l.55,.56s-.02-.09-.03-.14c0-.05-.01-.09-.01-.13v-.68Z"/></g><g><path class="cls-7" d="M40.92,7.38c.62,0,1.16,.06,1.6,.18,.44,.12,.81,.29,1.09,.51,.28,.22,.49,.49,.63,.81,.13,.32,.2,.68,.2,1.08,0,.23-.03,.45-.1,.67s-.18,.42-.33,.6c-.15,.19-.33,.36-.55,.51-.22,.15-.48,.27-.79,.37,1.38,.29,2.08,1.03,2.08,2.2,0,.42-.08,.8-.23,1.14-.16,.35-.38,.64-.68,.9s-.66,.45-1.1,.59c-.43,.14-.93,.21-1.49,.21h-3.58V7.38h3.25Zm-1.66,1.24v3.05h1.59c.68,0,1.19-.13,1.52-.39,.33-.26,.5-.64,.5-1.13,0-.54-.16-.93-.47-1.17-.31-.24-.81-.36-1.48-.36h-1.66Zm1.97,7.27c.36,0,.66-.04,.91-.13s.45-.2,.6-.34c.16-.14,.27-.32,.34-.51s.1-.41,.1-.63c0-.46-.16-.82-.47-1.09-.31-.26-.81-.4-1.49-.4h-1.96v3.1h1.97Z"/><path class="cls-7" d="M50.38,15.86c.38,0,.71-.06,1.01-.19,.3-.13,.55-.3,.75-.53,.21-.23,.36-.5,.47-.82,.11-.32,.16-.67,.16-1.06V7.38h1.58v5.89c0,.57-.09,1.11-.28,1.59s-.45,.91-.79,1.27-.76,.63-1.25,.83c-.49,.2-1.04,.3-1.66,.3s-1.17-.1-1.66-.3-.91-.48-1.25-.83c-.34-.35-.61-.78-.79-1.27s-.27-1.02-.27-1.59V7.38h1.59v5.88c0,.39,.05,.74,.16,1.06s.26,.59,.47,.82c.2,.23,.45,.41,.75,.53,.3,.13,.63,.19,1.01,.19Z"/><path class="cls-7" d="M60.51,13.32v3.83h-1.58v-3.83l-3.57-5.94h1.39c.14,0,.25,.03,.33,.1,.08,.07,.15,.15,.2,.26l2,3.5c.09,.18,.17,.34,.25,.5,.07,.16,.14,.31,.2,.47,.05-.16,.11-.32,.18-.47,.07-.16,.15-.32,.24-.5l1.99-3.5c.04-.09,.11-.17,.2-.25s.2-.11,.33-.11h1.4l-3.57,5.94Z"/><path class="cls-7" d="M34.77,20.38h-2.78v8.07h-2.29v-8.07h-2.78v-1.82h7.85v1.82Z"/><path class="cls-7" d="M38.23,28.45h-2.31v-9.88h2.31v9.88Z"/><path class="cls-7" d="M46.81,25.89c.05,0,.11,.01,.16,.03,.05,.02,.11,.06,.16,.11l.91,.96c-.4,.52-.9,.91-1.5,1.18-.6,.26-1.31,.4-2.13,.4-.75,0-1.42-.13-2.02-.38-.59-.26-1.1-.61-1.51-1.06-.41-.45-.73-.98-.95-1.6s-.33-1.29-.33-2.01,.12-1.41,.36-2.03,.58-1.15,1.01-1.6c.43-.45,.95-.8,1.56-1.04,.61-.25,1.27-.37,2-.37,.37,0,.72,.03,1.05,.1,.33,.07,.63,.16,.92,.27,.29,.12,.55,.25,.79,.42s.45,.34,.64,.53l-.77,1.04c-.05,.06-.11,.12-.18,.17-.07,.05-.16,.08-.29,.08-.08,0-.16-.02-.23-.05s-.15-.08-.23-.13c-.08-.05-.17-.11-.27-.17-.1-.06-.21-.12-.35-.17s-.29-.1-.47-.13-.39-.05-.63-.05c-.38,0-.73,.07-1.04,.21-.31,.14-.59,.35-.81,.61-.23,.27-.4,.6-.53,.99-.12,.39-.19,.84-.19,1.34s.07,.96,.21,1.35c.14,.39,.33,.73,.56,.99,.24,.27,.51,.47,.83,.61,.32,.14,.66,.21,1.02,.21,.21,0,.4,0,.57-.03s.33-.05,.48-.1c.15-.05,.29-.11,.42-.19,.13-.08,.26-.18,.4-.3,.05-.04,.11-.08,.18-.11,.06-.03,.13-.04,.2-.04Z"/><path class="cls-7" d="M51.33,22.57h.37c.34,0,.58-.11,.73-.32l2.22-3.23c.13-.17,.27-.29,.42-.36,.15-.07,.34-.1,.57-.1h1.99l-2.93,4c-.21,.28-.43,.47-.67,.6,.17,.06,.33,.15,.47,.26s.27,.26,.39,.44l2.98,4.59h-2.05c-.13,0-.24,0-.34-.03-.09-.02-.17-.04-.24-.08-.07-.04-.12-.08-.18-.13-.05-.05-.1-.11-.14-.18l-2.24-3.44c-.08-.13-.18-.22-.31-.27s-.29-.08-.51-.08h-.56v4.21h-2.29v-9.88h2.29v4Z"/><path class="cls-7" d="M60.93,20.33v2.31h3.11v1.7h-3.11v2.35h4.06v1.76h-6.36v-9.88h6.36v1.76h-4.06Z"/><path class="cls-7" d="M73.5,20.38h-2.78v8.07h-2.29v-8.07h-2.78v-1.82h7.86v1.82Z"/></g></svg>